<svg xmlns="http://www.w3.org/2000/svg" viewBox="0 0 1182.947 362.714">
  <defs>
    <style>
      .cls-1 {
        fill: #189790;
      }
    </style>
  </defs>
  <g id="squiggle" transform="translate(-209.752 505.494)">
    <g id="g12" transform="translate(209.751 -505.494)">
      <path id="path14" class="cls-1" d="M226.262-342.663a74.725,74.725,0,0,0,.729,10.527.927.927,0,0,0,1.658.367c5.413-6.625,9.3-21.305,8.294-29.805-.788-6.681-6-5.552-9.6-1.234-7.141,8.557-5.778,24.839-5.236,35,.582,10.887,1.723,27.831,10.114,36.084a.928.928,0,0,0,1.3.106c10.3-10.753,15.07-28.2,18.649-42.164,3.176-12.393,7.446-32.537-3.467-42.521a.933.933,0,0,0-1.564.276c-8.265,24.538-2.69,54.644,8.773,77.294,3.413,6.742,13.289,21.059,18.356,7.977,5.876-15.173,2.166-36.219-.368-51.657-2.366-14.418-6.16-36.807-19.627-45.471a.932.932,0,0,0-1.28.226c-11.168,15.916-10.6,39.842-11.054,58.349-.579,23.736,1.258,47.449.841,71.174-.128,7.284.416,14.56.27,21.848a56.284,56.284,0,0,1-1.96,13.381c-2.22,8.419-2.676.373-3.286-2.457-2.8-12.969-1.143-27.171.861-40.135,1.879-12.151,5.034-24.846,11.164-35.616,4.249-7.466,8.2,4.651,10.231,8.867,3.769,7.822,6.256,16.316,9.088,24.5.294.849,4.727,7.459,2.736,2.577-.8-1.968-1.583-3.943-2.371-5.919q-2.88-7.226-5.8-14.43a378.491,378.491,0,0,0-16.016-34.829c-5.4-10.154-14.875-29.221-29.059-24.226-17.491,6.159-4.287,45.089-1.061,55.658,5.316,17.425,17.456,46.194,38.959,47.775,18.828,1.386,29.8-26.273,35.589-39.808,2.589-6.054,4.81-12.264,6.986-18.477.271-.775,1.249-8.02,1.917-4.557.823,4.269,1.593,8.547,2.366,12.823,3.506,19.392,6.526,38.869,9.477,58.35,3.613,23.838,8.419,48.326,8.191,72.547a40.7,40.7,0,0,1-1.61,11.935c-2.673,8.417-10.943-1-13.588-4.023-8.77-10.036-14.207-23.068-18.8-35.419-10.825-29.1-15.5-61.242-15.128-92.2.291-24.452,7.944-47.16,13.53-70.7,3.772-15.893,8.625-35.834.991-51.336-6.246-12.684-23.779-13.672-34.781-7.549-17.527,9.755-33.4,31.574-36.9,51.3-2.9,16.31.709,36.752,21.19,34.011,18.222-2.437,29.114-16.653,39.91-29.824a111.122,111.122,0,0,1,13.322-14.1c9.358-8.038,15.753-1.357,21.118,7.035,6.961,10.892,12.393,22.995,17.264,34.94a.932.932,0,0,0,1.424.307c18.31-12.47,24.625-38.459,30.093-58.743A428.815,428.815,0,0,0,372.1-452.871c1.23-12.149,4.811-38.7-6.877-47.661-12.376-9.492-27.586,8.736-34.679,17.091a151.613,151.613,0,0,0-18.188,27.3c-4.982,9.428,1.665,14.818,7.425,22.929a57.161,57.161,0,0,1,6.088,55.94c-5.4,12.734-15.4,24.462-24.026,35.2-2.919,3.632-11.326,14.787-17.281,9.188-4.731-4.449-4.563-15.834-5.143-22.042-.811-8.679-1.12-46.355,15.376-39.624,9.337,3.81,16.834,14.241,23.037,21.771a331.983,331.983,0,0,1,20.481,28.21A112.616,112.616,0,0,1,352.9-252.372c-4.885,17.8-17.114,31.456-35.518,35.342-25.173,5.313-27.138-24.189-31.153-41.175a.932.932,0,0,0-1.065-.746c-14.717,2.772-24.674,22.9-32.007,34.1-9.987,15.248-26.721,28.9-29.047,47.83-4.219,34.336,47.2,28.29,65.586,22.226,14.464-4.772,25.521-15.13,19.73-31.244-4-11.114-9.929-21.458-14.3-32.455-6.613-16.643-12.2-33.686-17.2-50.879-4.3-14.779-7.837-29.769-10.912-44.846-2.569-12.586-5.458-26.713-2.192-39.423,3.4-13.231,21.3-18.341,31.149-25.927a.92.92,0,0,0,.31-.861c-1.248-8.357-5.061-13.724-12.08-18.309-10.077-6.584-25.182-11.645-20.491-27.018,5.668-18.573,37.729-27.845,54.275-31.6,72.648-16.5,35.045,116.973,27.753,146.85-4.244,17.39-8.731,34.731-13.341,52.027-4.117,15.45-6.878,31.259-13.28,46-4.342,10-6.222,4.269-9.395-2.343-2.622-5.465-4.166-11.437-5.615-17.293-3.259-13.181-4.675-26.846-5.712-40.354-2.232-29.069-.414-56.763,9.868-84.345,2.917-7.824,30.534-57.748,37.606-29.992,4.2,16.505.9,35.956-1.064,52.566-2.1,17.7-5.09,35.3-8.338,52.821-1.919,10.359-13.916,68.93-29.453,50.785-6.7-7.818-8.1-21-9.643-30.763a220.382,220.382,0,0,1-2.588-34.375c0-31.845,12.718-59.973,32.666-84.248,8.582-10.442,18.618-19.323,28.225-28.757a71.528,71.528,0,0,1,22.648-15.207c7.434-3.092,15.291,1.22,22.485-1.344,13.546-4.828,13.043-21.967,10.225-33.47a73.508,73.508,0,0,0-27.207-40.614c-11.711-8.549-25.473-8.217-35.923,1.93-19.365,18.8-25.509,45.337-20.874,71.229,4.953,27.666,21.112,52.627,35.483,76.217,18.706,30.7,29.946,62.109,24.926,98.613-1.29,9.387-4.237,18.532-7.115,27.534-2.564,8.017-8.653,25.183-17.536,8.311-5.519-10.481-6.55-23.766-7.529-35.352-2.132-25.221-1.4-53.117,5.587-77.609a178.942,178.942,0,0,1,16.244-37.982,74.38,74.38,0,0,1,12.137-16.4c5.978-5.976,6.665-3.8,8.4,2.679,5.514,20.634,6.771,43.145,6.9,64.389.059,9.613-.331,19.456-2.578,28.838-3.589,14.979-14.111,4.8-20.892-2.389-17.66-18.732-33.433-40.074-29.442-67.125,4.054-27.486,24.337-54.6,39.274-77.611,5.126-7.9,16.413-24.346,22.732-9.025,3.991,9.675,4.228,21.387,4.847,31.675,2.892,47.959,3.937,97.844-2.423,145.472-3.478,26.042-9.733,53.757-25.632,75.249a60.025,60.025,0,0,1-11.863,11.793c-2.529,1.944-4.609-8.676-4.981-10.412-2.653-12.406-1.889-25.652-1.172-38.225,2.512-44.033,9.942-92.193,28.167-132.569,2.985-6.612,16.384-32.8,21.565-15.556,3.566,11.867,3.11,25.3,3.235,37.53.256,25.2-.083,51.364,6.936,75.762a.923.923,0,0,0,1.82-.072,389.489,389.489,0,0,0,.709-69.93.924.924,0,0,0-1.3-.67c-9.109,4.45-13.871,17.876-17.6,26.483-7.65,17.676-13.133,36.5-17.369,55.265-4.172,18.48-7.635,37.551-6.971,56.572.283,8.113,1.386,20.147,9.967,23.953,18.146,8.046,23.092-54.741,24.079-62.279,2.878-21.992,4.878-44.093,7.347-66.136,1.848-16.49,3.033-34.146,8.564-49.913-.65,1.852,3.155,8.141,3.952,10.351a159.912,159.912,0,0,1,5.687,21.936,369.667,369.667,0,0,1,5.876,42.216c.587,6.593.934,13.208,1.088,19.825.035,1.451,1.776,6.809,1.091,3.3-.994-5.079-1.554-10.241-2.108-15.383-2.079-19.343-1.706-38.956-1.565-58.381.107-14.777-.679-29.728.766-44.453.284-2.9,2.97-21.68,7.5-13.465,3.841,6.96,5.528,15.029,6.978,22.764,5.452,29.075,1.875,59.553,11.084,87.968a.92.92,0,0,0,1.424.306c5.639-5.614,7.349-4.023,10.531,2.969,3.155,6.93,3.568,15.154,3.519,22.609-.087,13.335-3.754,26.718-9.094,38.85-3.443,7.82-16.7,29.88-25.075,14.7-5.952-10.789-6.382-25.467-7.281-37.437-1.387-18.468-1.246-37.065-.816-55.569.605-26.006,1.144-52.622,5.67-78.3,1.75-9.927,3.951-20.46,8.937-29.34,9.748-17.364,18.824,15.268,19.414,21.978,1.988,22.567-5.254,48.1,4.258,69.54a.928.928,0,0,0,1.693-.075c7.377-17.252,9.046-36.266,11.93-54.629,1.555-9.908,3.572-19.711,7.12-29.11,2.791-7.4,1.3,8.217,1.339,11.642.086,7.345-.242,14.694-.616,22.026C512.387-304.084,501.8-256,508.389-207.622a.925.925,0,0,0,1.767.161c8.461-32.217,12.643-65.246,15.951-98.334,1.766-17.66,3.233-35.351,4.882-53.021q1.218-13.048,2.656-26.07c.831-7.563,4.647-19.258,2.795-26.481,7.851,30.615,3.459,64.184,4.019,95.455.669,37.365,4.261,75.09,11.716,111.717a.926.926,0,0,0,1.5.541c14.414-12.873,19.513-32.539,23.182-50.811,5.081-25.294,6.462-51.194,10.729-76.625,1.92-11.445,4.61-22.788,9.154-33.492,3.829-9.022,4.608,4.82,5.072,8.629.961,7.873.2,15.953-.781,23.781-3.175,25.372-12.369,52.677-26.128,74.343-7.242,11.408-17.562,22.38-29.706,28.5-16.875,8.5-22.327-11.124-23.7-23.2-2.2-19.372.849-39.671,3.669-58.855a412.831,412.831,0,0,1,13.478-59.838c4.6-15.122,12.272-44.457,30.088-49.15,18.22-4.8,23.246,30.942,25.431,41.976,3.423,17.289,4.733,35.933,11.92,52.212a.925.925,0,0,0,1.583.132c3.069-5.574,4.741-11.352,6.257-17.528.964-3.928,3.115,2.175,3.289,2.553a57.135,57.135,0,0,1,3.346,10.842c2.832,11.967,3.37,24.532,4.238,36.753,1.429,20.12.571,47.44,15.154,63.4a.928.928,0,0,0,1.564-.274c4.141-15.14,4.036-31.661,3.329-47.219-.777-17.12-1.758-35.7-8.388-51.737a.929.929,0,0,0-1.424-.307c-11.369,8.708-9.192,29.221-7.66,41.535,1.484,11.932,5.785,34.873,18.9,40.135,13.041,5.234,22.008-13.087,27.165-21.911,5.058-8.657,9.568-17.616,14.816-26.165a52.643,52.643,0,0,1,7.934-10.344c6.357-6.186,9.863,2.284,12,7.284,4.334,10.156,7.44,20.907,10.474,31.509,1.133,3.958,2.132,7.933,3.5,11.824,3.791,10.794-12.631,14.95-19.681,15.128-35.98.9-30.1-45.583-26.182-69.491a165.048,165.048,0,0,1,10.873-37.995c2.525-5.949,7.392-17.783,15.6-17.712,7.211.061,12.158,12.839,14.638,18.038,4.431,9.287,7.06,19.164,10.194,28.922,1.242,3.862,3.983,17.989,8.936,19.363,2.115.589,5.569,1.848,6.994-.763,4.539-8.321,8.6-16.689,14.257-24.364,10.355-14.05,19.163,4.607,21.276,13.255,1.9,7.767-.977,15.912-4,22.938-4.663,10.857-12.056,20.325-16.819,31.163a.9.9,0,0,0,.161.914c13.265,12.623,25.428-6.071,32.823-16.155,3.168-4.322,6.279-8.7,10.2-12.385,9.04-8.5,12.611,2.134,15.212,8.657s7.77,15.277,15.847,13.634c10.368-2.108,17.575-26.273,31.355-18.249,12.139,7.069,27.12,11.191,40.484,15.284,20.378,6.242,37.686,3.2,58.148-.243,40.97-6.893,83.338-6.525,124.732-7.016,101.493-1.205,203.038.414,304.519,1.754,1.179.017,1.357-1.814.173-1.829-108.1-1.429-216.311-3.364-324.419-1.465-36.776.645-74.281.951-110.571,7.673-16.918,3.135-31.4,4.827-48.338.428-15.178-3.939-32.128-9.367-45.71-17.279-6.155-3.583-13.506,3.4-17.539,7.269-5.188,4.973-13.08,18.3-22.344,7.307-4.755-5.642-5.794-12.861-9.194-19.155-6.843-12.676-26.256,17.58-28.922,21.083-3.761,4.942-7.876,9.747-13.475,12.623l-6.5.436q-6.89-5.559-.492-11.653c1.7-3.152,3.6-6.21,5.432-9.293,5.725-9.647,12.913-21.528,11.472-33.287-.848-6.918-4.3-21.309-12.328-23.677-6.591-1.943-10.721,3.539-14.281,8.368a98.654,98.654,0,0,0-7.933,12.563c-.8,1.528-6.38,15.664-11.345,7.276a43.18,43.18,0,0,1-2.589-5.816c-3.816-9.427-6.115-19.377-9.5-28.951-3.139-8.891-12.7-36.286-26.842-27.13-7.984,5.17-12.2,18.839-15.076,27.037-3.938,11.209-6.23,23.081-7.96,34.8-2.514,17.038-5.9,46.48,8.821,59.469,5.517,4.867,16.123,6.042,23.022,5.4,9.527-.888,14.079-3.778,18.768-12.05,2.577-4.545-2.372-12.649-3.585-16.973-2.8-10-5.977-19.918-9.676-29.618-4.029-10.563-8.753-18.138-18.211-7.741-13.09,14.389-18.619,34.555-30.9,49.695-19.479,24.021-31.188-22.281-32.813-35.361-1.242-9.986-1.2-20.869,2.3-30.416,2.609-7.116,4.212-6.6,6.2.349a136.215,136.215,0,0,1,3.532,18.506,272.174,272.174,0,0,1,2.314,40.917c-.064,5.791-.438,11.574-1.013,17.337-.581,5.816.1,16.206-5.515,6.562-10.221-17.551-9.093-42.6-10.521-62.2-1.171-16.073-1.534-35.47-11.378-49.071a.925.925,0,0,0-1.564.276c-.955,4.068-1.936,8.111-3.051,12.138-.482,1.739-1.923,11.036-3.973,5.785-2.044-5.233-3.189-10.861-4.365-16.338-2.664-12.422-4.46-25.018-7.034-37.461-2.341-11.31-6.242-35.093-20.751-37.647-12.225-2.153-20.453,10.662-25.225,19.993-9.4,18.377-14.947,38.73-19.44,58.793a481.972,481.972,0,0,0-8.287,49.062c-2.181,18.528-4.793,40.053,2.19,57.886,6.967,17.794,25.08,8.847,35.557-.077,16.619-14.156,26.063-34.047,33.448-54.12,8.922-24.247,17.687-55.808,7.547-80.937a.924.924,0,0,0-1.583-.132c-25.948,47.132-9.136,107.641-35.882,154.6a56.712,56.712,0,0,1-3.92,5.76c-4.7,6.307-4.977,4.5-6.335-2.579-2.108-10.986-3.632-22.079-4.991-33.179-2.783-22.755-4.2-45.763-4.852-68.672-.931-32.785,3.434-66.81-4.814-98.965a.923.923,0,0,0-1.82.073c-9.379,63.314-9.811,127.8-23.314,190.522q-1.328,6.024-2.856,11.995c.065-.262-.674-7.873-.724-8.41a258.661,258.661,0,0,1-.644-29.8c.374-16.2,2.048-32.368,3.7-48.475,3.183-30.957,6.764-61.9,4.835-93.061-.062-1.018-1.411-.874-1.767-.159-12.791,25.735-10.26,56.278-19.2,83.268-3.034,9.162-4.076-6.23-4.445-9.165-.9-7.167-.65-14.513-.492-21.72.278-12.728,1.146-25.46-.42-38.137-.961-7.785-9.184-30.5-19.977-19.918-10.7,10.49-11.966,34.223-13.668,48.169-3.55,29.081-3.8,59.135-3.665,88.377.078,16.619.623,33.381,3.164,49.83,1.2,7.755,2.818,19.95,10.149,24.659,9.278,5.958,19.774-12.392,22.46-17.977,10.35-21.511,17.535-54.195,1.094-74.57a.918.918,0,0,0-1.3-.106c-4.482,4.468-5.883,3.826-7.442-2.476a141.535,141.535,0,0,1-2.712-16.167c-1.493-11.725-1.978-23.581-2.794-35.365-1.293-18.671-2.594-39.134-12.906-55.353a.935.935,0,0,0-1.583-.132c-12.015,15.068-7.275,41.341-7.4,59.214-.184,27.327-.9,55.034,4.372,81.981.192.989,1.8.994,1.82-.072.332-17.866-1.579-35.78-4.157-53.434-2.391-16.372-4.942-35.511-13.877-49.859a.93.93,0,0,0-1.693.076c-5.312,13.81-6.467,29.484-8.222,44.039-2.642,21.894-4.618,43.862-7.235,65.759-2.243,18.761-4.358,38.208-10.44,56.187-1.5,4.423-3.967,11.694-9.229,12.786-7.131,1.48-9.96-9.634-10.847-14.367-3.316-17.712.586-37.4,4-54.791a344.05,344.05,0,0,1,17.782-60.836,128.123,128.123,0,0,1,10.383-21.075,33.463,33.463,0,0,1,5.22-6.481c2.476-2.347,1.441-1.646,1.741,1.844.623,7.251.8,14.535.906,21.811.13,8.831-.213,17.666-.681,26.485-.226,4.247-.581,8.487-.937,12.724-.242,2.88-1.1-6.347-1.115-6.41-3.217-15.6-3.925-32.1-4.264-48-.4-18.789,4.443-48.2-7.748-64.225a.916.916,0,0,0-1.1-.236c-14.839,7.738-21.435,27.743-26.577,42.416-6.446,18.4-10.6,37.6-13.987,56.77a528.311,528.311,0,0,0-7.5,61.769c-.853,14.955-2.445,34.892,5.994,48.175a.941.941,0,0,0,1.424.305c38.166-26.624,41.639-88.384,43.621-130.184,1.109-23.406-.237-46.693-.381-70.085-.123-19.881.305-40.243-3.6-59.828-1.69-8.471-6.333-20.559-16.372-13.258-7.908,5.75-13.154,16.458-18.069,24.6-6.576,10.9-13.263,21.775-19.5,32.873-12.1,21.532-21.175,48.156-8.271,71.434,8.379,15.113,20.6,31.091,34.306,41.68,16.914,13.07,16.683-26.43,16.8-34.062a320.589,320.589,0,0,0-2.673-43.535c-1.282-10.561-2.484-22.27-6.962-32.067a.933.933,0,0,0-1.225-.436c-18.931,7.658-28.665,37.279-34.724,54.753-7.413,21.382-8.244,45.2-8.032,67.607.177,18.66.239,44.178,13.26,59.13,11.255,12.924,21.7-35.344,22.536-39.348,6.489-30.886-1.021-63.167-16.225-90.3-14.62-26.09-32.077-50.307-40.975-79.221-4.71-15.3-5.563-31.38-1.558-46.911,3.79-14.7,15.36-35.1,30.82-39.878,20.295-6.274,38.063,19.4,45.031,34.6,3.908,8.519,6.152,18.122,4.948,27.487a19.73,19.73,0,0,1-6.723,12.368c-6.173,5.44-16.368-.093-23.431,2.221-23.418,7.67-43.607,31.724-58.579,50.611-30.07,37.935-36.122,89.552-21.7,135.265,2.659,8.424,11.141,22.712,20.687,11.846,11.7-13.323,14.032-33.992,17.2-50.9,6.186-33.013,14.551-69.333,10.437-103.024-.73-5.981-3.67-17.339-12.165-14.079-19.662,7.546-29.145,35.56-34.476,53.572-7.19,24.293-6.91,49.308-4.992,74.315,1.556,20.26,3.072,49.471,17.948,65.227a.929.929,0,0,0,1.454-.067c7.257-10.712,10.36-23.542,13.467-35.939q6.546-26.109,13.269-52.171c8.576-33.533,17.783-67.746,20.508-102.353,1.53-19.44,1.156-44.271-14.252-58.547-11.1-10.287-27.453-7.848-40.6-3.936-15.952,4.746-35.27,12.239-44.856,26.712-9.941,15.011,6.108,25.459,17.4,31.658,6.374,3.5,10.906,8.129,12.863,15.338,1.256,4.623-8.777,8.658-11.9,10.461-5.463,3.15-10.991,5.982-15.185,10.81-13.6,15.661-1.64,49.369,2.184,65.95,7.634,33.1,17.69,67.39,33.059,97.783,4.373,8.65,10.267,19.627,5.036,29.391-3.057,5.708-10.01,8.824-15.687,11.23a78.165,78.165,0,0,1-34.836,5.861c-11.509-.938-22.523-3.077-28.522-14.247-8.706-16.213,7.955-34.117,17.773-45.532,7.379-8.578,12.793-18.985,19.4-28.167a73.948,73.948,0,0,1,13.23-14.538c8.73-7.065,8.987,12.589,10.2,17.868,5.072,22.113,25.24,25.344,43.146,15.667,22.569-12.2,27.129-41.759,26.883-64.938-.243-22.967-7.9-43.35-20.363-62.219-10.935-16.55-23.268-35.41-39.86-46.828-14.151-9.739-19.415,9.707-20.819,20.552-1.143,8.821-3.572,45.935,11.63,44.51,6.331-.593,12.151-9.313,15.694-13.724,7.529-9.371,15.744-19.529,21-30.356,5.377-11.067,7.419-21.883,5.852-34.115-.893-6.966-3.627-13.811-6.611-20.091-2.712-5.7-15.828-17.773-13.246-23.674,5.83-13.322,31.782-58.635,50.729-48.658,8.719,4.592,8.316,22.21,8.364,30.249.075,12.641-1.689,25.315-3.679,37.769a416.653,416.653,0,0,1-14.844,62.883,179.949,179.949,0,0,1-8.683,21.67c-.59,1.238-14,22.372-15.607,18.418a219.051,219.051,0,0,0-17.942-35.238c-9.648-15.094-19.756-9.47-30.27,2.423-13.115,14.835-29.834,41.7-53.92,35.464-16.98-4.393-10.137-32.858-5.755-43.655C226.129-384,236.72-396.4,248.619-405.364c9.749-7.347,23.81-8.9,33.211.073,7.784,7.435,6.929,21.043,6.048,30.733-1.98,21.788-9.645,42.767-14.488,64-5.908,25.9-3.632,53.848.649,79.8,4.152,25.173,11.535,51.324,25.462,72.934,2.338,3.629,16.192,23.063,21.164,11.316,6.157-14.55,1.238-35.388-.71-50.383-4.846-37.313-10.811-74.628-17.934-111.572a.925.925,0,0,0-1.767-.161c-6.936,21-15.018,52.4-35.754,63.956-15.075,8.4-28.7-10.621-35.088-21.417-7.741-13.085-11.889-27.989-15.015-42.748-1.847-8.72-5.363-43.98,14.023-33.576,8.9,4.776,14.461,16.953,18.946,25.38,9.562,17.964,16.428,37.195,24.205,55.956.457,1.1,2.07.308,1.66-.789-5.629-15.043-9.14-32.568-20.229-44.753a.938.938,0,0,0-1.455.068c-9.395,10.9-12.341,27.132-14.721,40.881-2.695,15.558-4.413,34.141,1.724,49.144a.924.924,0,0,0,1.583.132c5.676-10.657,4.937-22.726,4.6-34.473-.331-11.422-.2-22.859-.5-34.286-.68-25.578-1.707-51.5,1.986-76.9a87.7,87.7,0,0,1,3.957-16.3c1.589-4.552,2.573-9.306,6.918-4.781,6.243,6.5,9.163,16.711,11.523,25.125a163.738,163.738,0,0,1,5.8,56.839c-.333,3.951-1.7,17.727-8.367,13.14-10.533-7.243-15.036-26.3-17.714-37.7a105.783,105.783,0,0,1-1.653-41.779c1.989-11.616,4.946-2.72,6.228,3.216,1.35,6.241.526,12.954-.332,19.206-1.611,11.734-5.438,23.251-9.946,34.163a93.341,93.341,0,0,1-6.861,13.475c-3.5,5.662-4.644,1.915-6.63-2.931C225-310.474,224.055-322.329,223.7-333.1c-.295-8.89-.863-25.454,7.748-31.017,6.166-3.982,1.072,18.3.823,19.172a81.221,81.221,0,0,1-2.793,7.919c-2.895,7.2-1.352-1.441-1.384-5.459-.01-1.175-1.84-1.357-1.831-.173Z" transform="translate(-209.751 505.494)"/>
    </g>
  </g>
</svg>
